<svg xmlns="http://www.w3.org/2000/svg" viewBox="0 0 24 24" version="1.1" id="Cube-Shape--Streamline-Ultimate.svg">
	<path d="M11.712 0.729624C11.116512 1.03752 1.728432 6.1585920000000005 1.6836720000000003 6.199968C1.652688 6.228576 1.606776 6.29208 1.5816720000000002 6.34104C1.537176 6.427824000000001 1.536 6.571944 1.536 11.982336L1.536 17.534568 1.596792 17.656584000000002C1.632696 17.728632 1.6941119999999998 17.80356 1.7467920000000001 17.839584000000002C1.9423200000000003 17.973312 11.822184 23.330952 11.909400000000002 23.350535999999998C11.97012 23.364192000000003 12.040296 23.361816 12.109464 23.343768C12.26676 23.302752 22.212623999999998 17.886623999999998 22.314456 17.78652C22.475712 17.628024 22.463664 18.094248 22.464144 11.988744C22.464576 6.560136 22.463520000000003 6.429168000000001 22.41864 6.341615999999999C22.393344000000003 6.292344 22.347312000000002 6.228624 22.316328 6.200064C22.269888 6.157272 12.796560000000001 0.9906 12.285192 0.729168C12.068280000000001 0.6182880000000001 11.927136 0.6183839999999999 11.712 0.729624M7.546224 4.135584C5.11644 5.458008 3.1254960000000005 6.550056 3.121848 6.5623439999999995C3.1182239999999997 6.574631999999999 5.114784 7.67268 7.558631999999999 9.002424L12.002016000000001 11.42016 16.435008 9.008352C18.873144 7.681871999999999 20.876640000000002 6.5881680000000005 20.8872 6.577896C20.90724 6.558384 12.043752 1.726824 11.993016 1.729584C11.977056 1.7304480000000002 9.976008 2.813136 7.546224 4.135584M2.549952 12.280896L2.556 17.144232 7.0200000000000005 19.573248L11.484 22.002264 11.490048 17.152392C11.493384 14.48496 11.487984 12.295152 11.478048000000001 12.286176C11.468136 12.277175999999999 9.489 11.198304 7.08 9.888648C4.671 8.579016000000001 2.664864 7.487256 2.6219520000000003 7.462512L2.54388 7.41756 2.549952 12.280896M16.962 9.867288L12.504 12.293544 12.504 17.152272L12.504 22.011 12.627984000000001 21.943488000000002C12.696167999999998 21.906384 14.707656 20.81184 17.097984 19.511208L21.444 17.14644 21.450048 12.293208C21.453384 9.623952 21.447984 7.44024 21.438048 7.440528C21.428136000000002 7.440816 19.413912 8.532864 16.962 9.867288" stroke="none" fill="currentColor" fill-rule="evenodd"></path>
</svg>