<svg id="Layer_1" data-name="Layer 1" xmlns="http://www.w3.org/2000/svg" viewBox="55.629547 482.0904 7825.749 6090.3545"><defs><style>.cls-1{fill:#00acd3;}</style></defs><path class="cls-1" d="M6339.06379,4402.44269c-59.6626-102.53863-120.12646-204.61114-180.10351-306.96795Q5594.2967,3131.8108,5029.71467,2168.09949q-467.87622-798.82909-935.627-1597.7312c-68.06592-116.05176-187.03369-117.98193-255.77735-4.00708-70.29834,116.554-137.999,234.67554-206.72509,352.17676q-544.72486,931.32129-1089.489,1862.62036-301.29309,514.51593-604.0293,1028.187c-20.68969,35.23737-37.40966,72.99268-7.24731,109.99555,26.2561,32.21038,62.39258,28.38177,97.048,14.29071,222.59534-90.50672,454.10047-148.42719,689.34-195.00568,485.74609-96.17871,953.18579-49.09332,1400.29028,169.57544,40.42871,19.77154,81.14527,30.4751,112.81592-11.60974,32.43067-43.09546,9.35791-77.4577-23.67456-109.20191Q3785.74091,3382.906,3218.2198,3246.89148c-76.77417-18.3435-80.00464-23.77588-39.3479-93.19873q354.67419-605.621,709.42187-1211.19824c57.79053-98.65893,97.57153-98.0459,155.80542,1.57227q264.35414,452.22,529.14429,904.18554,437.75463,747.80238,875.35693,1495.69483c54.32031,92.9602,35.0791,138.01837-67.58838,170.85992-293.36084,93.84253-580.67773,59.99848-866.85742-35.24621-220.78906-73.48188-413.12866-203.35779-620.37036-303.5019-399.25586-192.93-814.40454-251.797-1250.53394-148.96392-400.552,94.44464-712.63855,321.79986-974.55053,628.8045-71.401,83.69385-137.527,171.416-197.02442,264.06891-13.77417,21.45032-25.62646,44.51739-5.02417,65.52978,18.39771,18.76374,41.40528,6.32648,61.72046-1.9591,10.12512-4.12988,19.5177-10.04145,29.28894-15.05451,338.55811-173.69159,692.86951-300.37689,1070.538-356.16528,306.32031-45.24847,604.31689-17.2793,893.50048,99.123,281.48023,113.30072,548.75049,257.102,826.29493,378.83917,237.77148,104.29089,481.10547,180.23633,744.26953,174.74011,165.26758-1.978,328.83838-20.83612,488.4165-65.71161,238.09033-66.95453,467.00244-154.58191,664.05713-309.753C6405.46467,4762.99274,6441.21662,4578.00837,6339.06379,4402.44269Z"/></svg>
