<?xml version="1.0" encoding="UTF-8"?>
<!DOCTYPE svg  PUBLIC '-//W3C//DTD SVG 1.1//EN'  'http://www.w3.org/Graphics/SVG/1.1/DTD/svg11.dtd'>
<svg enable-background="new 0 0 70 70" version="1.1" viewBox="0 0 70 70" xml:space="preserve" xmlns="http://www.w3.org/2000/svg">
	<polygon points="28.768 14.232 27.449 19.689 30.07 19.689 28.799 14.232" fill="#6F2D6E"/>
	<path d="m20.258 14.078h-1.504v3.597h1.411c1.132 0 1.767-0.683 1.767-1.799 0-1.178-0.511-1.798-1.674-1.798z" fill="#6F2D6E"/>
	<path d="m11.453 13.86c-1.053 0-1.891 0.651-1.891 4.372 0 3.813 0.838 4.465 1.891 4.465 1.055 0 1.893-0.651 1.893-4.465 0-3.72-0.838-4.372-1.893-4.372z" fill="#6F2D6E"/>
	<path d="m39.629 39.51c-0.012-0.077-0.016-0.154-0.016-0.231 0-0.128 0.029-0.25 0.057-0.373 0.578-2.634 7.199-4.013 13.758-4.013 2.223 0 4.451 0.162 6.451 0.473v-24.347c0-2.762-2.238-5-5-5h-45.697c-2.76 0-5 2.238-5 5v46.811c0 2.762 2.24 5 5 5l31.218-0.064c-0.508-0.513-0.787-1.085-0.787-1.671l0.016-21.585zm9.892-26.766h5.984v1.488h-4.217v3.07h3.969v1.488h-3.969v3.534h4.342v1.488h-6.109v-11.068zm-7.393 0h1.768v9.581h4.277v1.488h-6.045v-11.069zm-30.675 11.286c-2.541 0-3.658-1.798-3.658-5.751s1.117-5.752 3.658-5.752c2.543 0 3.66 1.799 3.66 5.752s-1.117 5.751-3.66 5.751zm10.727-0.217c-0.17-0.201-0.248-0.542-0.294-0.977-0.062-0.667-0.046-1.287-0.077-2.093-0.031-1.209-0.403-1.736-1.613-1.736h-1.441v4.806h-1.768v-11.069h3.907c1.55 0 2.806 0.775 2.806 2.853 0 1.427-0.635 2.527-1.844 2.714v0.03c1.1 0.108 1.674 0.714 1.736 2.264 0.016 0.713 0.03 1.581 0.062 2.248 0.03 0.543 0.294 0.806 0.526 0.961h-2zm8.867 0l-0.683-2.713h-3.24l-0.714 2.713h-1.844l3.146-11.069h2.264l2.914 11.069h-1.843zm6.322 0.217c-2.791 0-3.658-1.798-3.658-5.751s0.867-5.752 3.674-5.752c3.147 0 3.333 2.325 3.333 3.473v0.202h-1.768v-0.187c0-1.023-0.31-2.201-1.581-2.155-1.303 0-1.891 0.807-1.891 4.372s0.588 4.465 1.891 4.465c1.474 0 1.644-1.644 1.644-2.666v-0.187h1.768v0.232c-1e-3 2.001-0.807 3.954-3.412 3.954z" fill="#6F2D6E"/>
	<path d="m59.879 43.196v-4e-3c-0.346 0.057-0.688 0.101-1.032 0.146-0.177 0.023-0.347 0.049-0.526 0.07-0.322 0.037-0.646 0.064-0.972 0.092-0.207 0.018-0.413 0.037-0.626 0.052-0.414 0.028-0.832 0.052-1.261 0.068-0.068 3e-3 -0.138 5e-3 -0.207 7e-3 -0.49 0.017-0.989 0.028-1.509 0.031-0.105 1e-3 -0.211 5e-3 -0.318 5e-3 -4.928 0-9.887-0.781-12.299-2.285v19.816c0.135 0.456 1.306 1.054 2.947 1.59 2.215 0.653 5.634 1.195 10.152 1.195 8.271 0 11.705-1.87 11.705-2.871l0.016-19.909c-1.287 0.84-3.374 1.555-6.07 1.997zm-12.189 3.105h3.949l1.881 9.298h0.037l1.9-9.298h3.93v13.172h-2.436v-10.515h-0.037l-2.342 10.515h-2.066l-2.344-10.515h-0.037v10.515h-2.435v-13.172z" fill="#6F2D6E"/>
	<path d="m53.428 36.393c-7.969 0-12.314 1.906-12.314 2.886s4.346 2.887 12.314 2.887c2.532 0 4.695-0.193 6.473-0.488 3.814-0.632 5.842-1.731 5.842-2.399s-2.027-1.767-5.842-2.398c-1.778-0.295-3.941-0.488-6.473-0.488z" fill="#6F2D6E"/>
	<polygon points="50.126 48.958 50.163 48.958 52.507 59.473 54.573 59.473 56.915 48.958 56.952 48.958 56.952 59.473 59.388 59.473 59.388 46.301 55.458 46.301 53.558 55.599 53.521 55.599 51.64 46.301 47.69 46.301 47.69 59.473 50.126 59.473" fill="#fff"/>
	<path d="m11.453 12.527c-2.541 0-3.658 1.799-3.658 5.752s1.117 5.751 3.658 5.751c2.543 0 3.66-1.798 3.66-5.751s-1.117-5.752-3.66-5.752zm0 10.17c-1.053 0-1.891-0.651-1.891-4.465 0-3.721 0.838-4.372 1.891-4.372 1.055 0 1.893 0.651 1.893 4.372 0 3.814-0.838 4.465-1.893 4.465z" fill="#fff"/>
	<path d="m23.653 22.853c-0.031-0.667-0.046-1.535-0.062-2.248-0.063-1.55-0.637-2.155-1.736-2.264v-0.03c1.209-0.187 1.844-1.287 1.844-2.714 0-2.077-1.256-2.853-2.806-2.853h-3.907v11.069h1.768v-4.806h1.441c1.21 0 1.582 0.527 1.613 1.736 0.031 0.806 0.016 1.426 0.077 2.093 0.046 0.435 0.124 0.775 0.294 0.977h2c-0.232-0.155-0.495-0.417-0.526-0.96zm-3.488-5.178h-1.411v-3.597h1.504c1.163 0 1.674 0.62 1.674 1.798 0 1.116-0.635 1.799-1.767 1.799z" fill="#fff"/>
	<path d="m27.713 12.744l-3.146 11.069h1.844l0.714-2.713h3.24l0.683 2.713h1.844l-2.914-11.069h-2.265zm-0.264 6.945l1.318-5.457h0.031l1.271 5.457h-2.62z" fill="#fff"/>
	<path d="m40.78 19.845h-1.768v0.187c0 1.022-0.17 2.666-1.644 2.666-1.303 0-1.891-0.899-1.891-4.465s0.588-4.372 1.891-4.372c1.271-0.046 1.581 1.132 1.581 2.155v0.187h1.768v-0.203c0-1.147-0.186-3.473-3.333-3.473-2.807 0-3.674 1.799-3.674 5.752s0.867 5.751 3.658 5.751c2.604 0 3.411-1.953 3.411-3.953v-0.232z" fill="#fff"/>
	<polygon points="48.173 22.325 43.896 22.325 43.896 12.744 42.128 12.744 42.128 23.813 48.173 23.813" fill="#fff"/>
	<polygon points="55.63 22.325 51.288 22.325 51.288 18.791 55.257 18.791 55.257 17.303 51.288 17.303 51.288 14.232 55.505 14.232 55.505 12.744 49.521 12.744 49.521 23.813 55.63 23.813" fill="#fff"/>
</svg>
