<?xml version="1.0" encoding="UTF-8"?> <svg xmlns="http://www.w3.org/2000/svg" id="Layer_1" data-name="Layer 1" viewBox="0 0 150 188.3852"><path id="logo" d="M94.5,132.6261a12.5626,12.5626,0,0,1-3.9184-10.0243c.1851-3.8446,1.6294-7.8575,13.8715-12.6237l-.0149-.0388c14.434-6.119,44.7712-19.99,44.7712-54.8363C149.21,24.7192,124.2421,0,93.5528,0H0V184.4916H34.3733V34.3707h59.18c11.7357,0,21.2837,9.3021,21.2837,20.7323,0,8.5279-3.9974,14.8346-25.0868,23.7276l.0009.0026c-14.4641,5.8827-32.2763,16.7413-33.5,42.1116a46.99,46.99,0,0,0,13.3667,35.3934c18.1879,19.087,50.6894,26.0887,80.2836,28.13V149.9642C123.4337,147.7947,103.0186,141.5657,94.5,132.6261Z" style="fill: #21205f"></path></svg>
